<svg xmlns="http://www.w3.org/2000/svg" xmlns:xlink="http://www.w3.org/1999/xlink" width="500" zoomAndPan="magnify" viewBox="0 0 375 225" height="300" preserveAspectRatio="xMidYMid meet" version="1.0"><defs><g/><clipPath id="94d99926b9"><path d="M 43 85 L 79 85 L 79 134 L 43 134 Z M 43 85 " clip-rule="nonzero"/></clipPath><clipPath id="ea34d5fa4c"><path d="M 66.332031 82.25 L 81.824219 91.367188 L 55.179688 136.636719 L 39.6875 127.515625 Z M 66.332031 82.25 " clip-rule="nonzero"/></clipPath><clipPath id="a8c3f61642"><path d="M 74.078125 86.808594 C 76.132812 88.015625 77.621094 89.992188 78.21875 92.300781 C 78.816406 94.609375 78.472656 97.058594 77.265625 99.113281 L 59.75 128.867188 C 58.539062 130.921875 56.566406 132.414062 54.257812 133.011719 C 51.949219 133.609375 49.5 133.265625 47.445312 132.054688 C 45.390625 130.847656 43.898438 128.871094 43.300781 126.5625 C 42.703125 124.253906 43.046875 121.804688 44.257812 119.75 L 61.773438 89.996094 C 62.980469 87.941406 64.957031 86.449219 67.265625 85.851562 C 69.574219 85.253906 72.023438 85.597656 74.078125 86.808594 Z M 74.078125 86.808594 " clip-rule="nonzero"/></clipPath><clipPath id="17d00cea9f"><path d="M 0 0.199219 L 35.960938 0.199219 L 35.960938 48.679688 L 0 48.679688 Z M 0 0.199219 " clip-rule="nonzero"/></clipPath><clipPath id="3fe01c5ff3"><path d="M 23.332031 -2.75 L 38.824219 6.367188 L 12.179688 51.636719 L -3.3125 42.515625 Z M 23.332031 -2.75 " clip-rule="nonzero"/></clipPath><clipPath id="2dff87cc43"><path d="M 31.078125 1.808594 C 33.132812 3.015625 34.621094 4.992188 35.21875 7.300781 C 35.816406 9.609375 35.472656 12.058594 34.265625 14.113281 L 16.75 43.867188 C 15.539062 45.921875 13.566406 47.414062 11.257812 48.011719 C 8.949219 48.609375 6.5 48.265625 4.445312 47.054688 C 2.390625 45.847656 0.898438 43.871094 0.300781 41.5625 C -0.296875 39.253906 0.046875 36.804688 1.257812 34.75 L 18.773438 4.996094 C 19.980469 2.941406 21.957031 1.449219 24.265625 0.851562 C 26.574219 0.253906 29.023438 0.597656 31.078125 1.808594 Z M 31.078125 1.808594 " clip-rule="nonzero"/></clipPath><clipPath id="85cf007320"><rect x="0" width="36" y="0" height="49"/></clipPath><clipPath id="1546239968"><path d="M 30.4375 86.023438 L 48.960938 86.023438 L 48.960938 104.546875 L 30.4375 104.546875 Z M 30.4375 86.023438 " clip-rule="nonzero"/></clipPath><clipPath id="2fdfefedd3"><path d="M 39.699219 86.023438 C 34.585938 86.023438 30.4375 90.171875 30.4375 95.285156 C 30.4375 100.398438 34.585938 104.546875 39.699219 104.546875 C 44.8125 104.546875 48.960938 100.398438 48.960938 95.285156 C 48.960938 90.171875 44.8125 86.023438 39.699219 86.023438 Z M 39.699219 86.023438 " clip-rule="nonzero"/></clipPath><clipPath id="bc49ef4349"><path d="M 0.4375 0.0234375 L 18.960938 0.0234375 L 18.960938 18.546875 L 0.4375 18.546875 Z M 0.4375 0.0234375 " clip-rule="nonzero"/></clipPath><clipPath id="fc5d7263a1"><path d="M 9.699219 0.0234375 C 4.585938 0.0234375 0.4375 4.171875 0.4375 9.285156 C 0.4375 14.398438 4.585938 18.546875 9.699219 18.546875 C 14.8125 18.546875 18.960938 14.398438 18.960938 9.285156 C 18.960938 4.171875 14.8125 0.0234375 9.699219 0.0234375 Z M 9.699219 0.0234375 " clip-rule="nonzero"/></clipPath><clipPath id="a67f66ddc7"><rect x="0" width="19" y="0" height="19"/></clipPath><clipPath id="e68246ac3c"><rect x="0" width="250" y="0" height="70"/></clipPath><clipPath id="a18aedc4ab"><path d="M 0.199219 6 L 13 6 L 13 20 L 0.199219 20 Z M 0.199219 6 " clip-rule="nonzero"/></clipPath><clipPath id="f9469b31e7"><rect x="0" width="228" y="0" height="26"/></clipPath></defs><rect x="-37.5" width="450" fill="#ffffff" y="-22.5" height="270" fill-opacity="1"/><rect x="-37.5" width="450" fill="#ffffff" y="-22.5" height="270" fill-opacity="1"/><g clip-path="url(#94d99926b9)"><g clip-path="url(#ea34d5fa4c)"><g clip-path="url(#a8c3f61642)"><g transform="matrix(1, 0, 0, 1, 43, 85)"><g clip-path="url(#85cf007320)"><g clip-path="url(#17d00cea9f)"><g clip-path="url(#3fe01c5ff3)"><g clip-path="url(#2dff87cc43)"><path fill="#1b17ff" d="M 23.332031 -2.75 L 38.824219 6.367188 L 12.179688 51.636719 L -3.3125 42.515625 Z M 23.332031 -2.75 " fill-opacity="1" fill-rule="nonzero"/></g></g></g></g></g></g></g></g><g clip-path="url(#1546239968)"><g clip-path="url(#2fdfefedd3)"><g transform="matrix(1, 0, 0, 1, 30, 86)"><g clip-path="url(#a67f66ddc7)"><g clip-path="url(#bc49ef4349)"><g clip-path="url(#fc5d7263a1)"><path fill="#1b17ff" d="M 0.4375 0.0234375 L 18.960938 0.0234375 L 18.960938 18.546875 L 0.4375 18.546875 Z M 0.4375 0.0234375 " fill-opacity="1" fill-rule="nonzero"/></g></g></g></g></g></g><g transform="matrix(1, 0, 0, 1, 89, 69)"><g clip-path="url(#e68246ac3c)"><g fill="#000000" fill-opacity="1"><g transform="translate(0.469869, 52.920675)"><g><path d="M 11.0625 0 L 1.3125 -36.875 L 8.53125 -36.875 L 15.171875 -7.53125 L 22.96875 -36.875 L 30.40625 -36.875 L 37.984375 -7.53125 L 44.625 -36.875 L 51.890625 -36.875 L 41.890625 0 L 33.875 0 L 26.546875 -27.34375 L 19.015625 0 Z M 11.0625 0 "/></g></g></g><g fill="#000000" fill-opacity="1"><g transform="translate(51.988065, 52.920675)"><g><path d="M 15.96875 0.625 C 13.4375 0.625 11.160156 0.046875 9.140625 -1.109375 C 7.117188 -2.265625 5.519531 -3.867188 4.34375 -5.921875 C 3.164062 -7.984375 2.578125 -10.363281 2.578125 -13.0625 C 2.578125 -15.769531 3.175781 -18.148438 4.375 -20.203125 C 5.570312 -22.253906 7.175781 -23.859375 9.1875 -25.015625 C 11.207031 -26.179688 13.484375 -26.765625 16.015625 -26.765625 C 18.503906 -26.765625 20.757812 -26.179688 22.78125 -25.015625 C 24.800781 -23.859375 26.398438 -22.253906 27.578125 -20.203125 C 28.753906 -18.148438 29.34375 -15.769531 29.34375 -13.0625 C 29.34375 -10.363281 28.753906 -7.984375 27.578125 -5.921875 C 26.398438 -3.867188 24.789062 -2.265625 22.75 -1.109375 C 20.71875 0.046875 18.457031 0.625 15.96875 0.625 Z M 15.96875 -5.21875 C 17.71875 -5.21875 19.242188 -5.875 20.546875 -7.1875 C 21.847656 -8.507812 22.5 -10.46875 22.5 -13.0625 C 22.5 -15.664062 21.847656 -17.625 20.546875 -18.9375 C 19.242188 -20.257812 17.734375 -20.921875 16.015625 -20.921875 C 14.222656 -20.921875 12.6875 -20.257812 11.40625 -18.9375 C 10.125 -17.625 9.484375 -15.664062 9.484375 -13.0625 C 9.484375 -10.46875 10.125 -8.507812 11.40625 -7.1875 C 12.6875 -5.875 14.207031 -5.21875 15.96875 -5.21875 Z M 15.96875 -5.21875 "/></g></g></g><g fill="#000000" fill-opacity="1"><g transform="translate(82.224548, 52.920675)"><g><path d="M 3.421875 0 L 3.421875 -26.140625 L 9.4375 -26.140625 L 10.0625 -21.234375 C 11.007812 -22.921875 12.300781 -24.265625 13.9375 -25.265625 C 15.570312 -26.265625 17.492188 -26.765625 19.703125 -26.765625 L 19.703125 -19.65625 L 17.8125 -19.65625 C 16.332031 -19.65625 15.015625 -19.425781 13.859375 -18.96875 C 12.703125 -18.507812 11.796875 -17.71875 11.140625 -16.59375 C 10.492188 -15.46875 10.171875 -13.90625 10.171875 -11.90625 L 10.171875 0 Z M 3.421875 0 "/></g></g></g><g fill="#000000" fill-opacity="1"><g transform="translate(101.398767, 52.920675)"><g><path d="M 3.421875 0 L 3.421875 -37.9375 L 10.171875 -37.9375 L 10.171875 -15.546875 L 19.4375 -26.140625 L 27.453125 -26.140625 L 16.75 -14.21875 L 29.1875 0 L 20.765625 0 L 10.171875 -13.125 L 10.171875 0 Z M 3.421875 0 "/></g></g></g><g fill="#000000" fill-opacity="1"><g transform="translate(129.633516, 52.920675)"><g><path d="M 11.0625 0 L 1.3125 -36.875 L 8.53125 -36.875 L 15.171875 -7.53125 L 22.96875 -36.875 L 30.40625 -36.875 L 37.984375 -7.53125 L 44.625 -36.875 L 51.890625 -36.875 L 41.890625 0 L 33.875 0 L 26.546875 -27.34375 L 19.015625 0 Z M 11.0625 0 "/></g></g></g><g fill="#000000" fill-opacity="1"><g transform="translate(181.151712, 52.920675)"><g><path d="M 7.0625 -30.1875 C 5.832031 -30.1875 4.820312 -30.554688 4.03125 -31.296875 C 3.238281 -32.035156 2.84375 -32.96875 2.84375 -34.09375 C 2.84375 -35.21875 3.238281 -36.140625 4.03125 -36.859375 C 4.820312 -37.578125 5.832031 -37.9375 7.0625 -37.9375 C 8.289062 -37.9375 9.300781 -37.578125 10.09375 -36.859375 C 10.882812 -36.140625 11.28125 -35.21875 11.28125 -34.09375 C 11.28125 -32.96875 10.882812 -32.035156 10.09375 -31.296875 C 9.300781 -30.554688 8.289062 -30.1875 7.0625 -30.1875 Z M 3.6875 0 L 3.6875 -26.140625 L 10.4375 -26.140625 L 10.4375 0 Z M 3.6875 0 "/></g></g></g><g fill="#000000" fill-opacity="1"><g transform="translate(193.530532, 52.920675)"><g><path d="M 14.21875 0.625 C 11.90625 0.625 9.867188 0.25 8.109375 -0.5 C 6.359375 -1.257812 4.953125 -2.304688 3.890625 -3.640625 C 2.835938 -4.972656 2.207031 -6.515625 2 -8.265625 L 8.796875 -8.265625 C 9.003906 -7.253906 9.570312 -6.382812 10.5 -5.65625 C 11.4375 -4.9375 12.644531 -4.578125 14.125 -4.578125 C 15.59375 -4.578125 16.671875 -4.875 17.359375 -5.46875 C 18.046875 -6.070312 18.390625 -6.757812 18.390625 -7.53125 C 18.390625 -8.65625 17.894531 -9.421875 16.90625 -9.828125 C 15.925781 -10.234375 14.554688 -10.628906 12.796875 -11.015625 C 11.671875 -11.253906 10.53125 -11.550781 9.375 -11.90625 C 8.21875 -12.257812 7.15625 -12.707031 6.1875 -13.25 C 5.21875 -13.789062 4.4375 -14.492188 3.84375 -15.359375 C 3.25 -16.222656 2.953125 -17.285156 2.953125 -18.546875 C 2.953125 -20.859375 3.875 -22.804688 5.71875 -24.390625 C 7.5625 -25.972656 10.148438 -26.765625 13.484375 -26.765625 C 16.578125 -26.765625 19.046875 -26.039062 20.890625 -24.59375 C 22.734375 -23.15625 23.832031 -21.175781 24.1875 -18.65625 L 17.8125 -18.65625 C 17.425781 -20.582031 15.96875 -21.546875 13.4375 -21.546875 C 12.164062 -21.546875 11.1875 -21.300781 10.5 -20.8125 C 9.820312 -20.320312 9.484375 -19.707031 9.484375 -18.96875 C 9.484375 -18.195312 9.992188 -17.582031 11.015625 -17.125 C 12.035156 -16.664062 13.382812 -16.242188 15.0625 -15.859375 C 16.894531 -15.441406 18.570312 -14.976562 20.09375 -14.46875 C 21.625 -13.957031 22.84375 -13.203125 23.75 -12.203125 C 24.664062 -11.203125 25.125 -9.769531 25.125 -7.90625 C 25.164062 -6.289062 24.742188 -4.832031 23.859375 -3.53125 C 22.984375 -2.226562 21.71875 -1.207031 20.0625 -0.46875 C 18.414062 0.257812 16.46875 0.625 14.21875 0.625 Z M 14.21875 0.625 "/></g></g></g><g fill="#000000" fill-opacity="1"><g transform="translate(219.500148, 52.920675)"><g><path d="M 16.125 0.625 C 13.488281 0.625 11.148438 0.0664062 9.109375 -1.046875 C 7.078125 -2.171875 5.476562 -3.75 4.3125 -5.78125 C 3.15625 -7.820312 2.578125 -10.179688 2.578125 -12.859375 C 2.578125 -15.554688 3.144531 -17.957031 4.28125 -20.0625 C 5.425781 -22.175781 7.007812 -23.820312 9.03125 -25 C 11.050781 -26.175781 13.429688 -26.765625 16.171875 -26.765625 C 18.734375 -26.765625 21 -26.203125 22.96875 -25.078125 C 24.9375 -23.953125 26.472656 -22.414062 27.578125 -20.46875 C 28.679688 -18.519531 29.234375 -16.351562 29.234375 -13.96875 C 29.234375 -13.570312 29.222656 -13.164062 29.203125 -12.75 C 29.191406 -12.332031 29.171875 -11.894531 29.140625 -11.4375 L 9.265625 -11.4375 C 9.410156 -9.394531 10.125 -7.796875 11.40625 -6.640625 C 12.6875 -5.484375 14.238281 -4.90625 16.0625 -4.90625 C 17.4375 -4.90625 18.585938 -5.210938 19.515625 -5.828125 C 20.453125 -6.441406 21.148438 -7.238281 21.609375 -8.21875 L 28.453125 -8.21875 C 27.960938 -6.570312 27.144531 -5.070312 26 -3.71875 C 24.851562 -2.363281 23.445312 -1.300781 21.78125 -0.53125 C 20.113281 0.238281 18.226562 0.625 16.125 0.625 Z M 16.171875 -21.28125 C 14.523438 -21.28125 13.066406 -20.816406 11.796875 -19.890625 C 10.535156 -18.960938 9.726562 -17.546875 9.375 -15.640625 L 22.390625 -15.640625 C 22.285156 -17.367188 21.648438 -18.738281 20.484375 -19.75 C 19.328125 -20.769531 17.890625 -21.28125 16.171875 -21.28125 Z M 16.171875 -21.28125 "/></g></g></g></g></g><g transform="matrix(1, 0, 0, 1, 103, 128)"><g clip-path="url(#f9469b31e7)"><g clip-path="url(#a18aedc4ab)"><g fill="#545454" fill-opacity="1"><g transform="translate(0.348707, 19.671736)"><g><path d="M 0.578125 0 L 5.46875 -13.3125 L 7.171875 -13.3125 L 12.0625 0 L 10.359375 0 L 9.140625 -3.421875 L 3.484375 -3.421875 L 2.25 0 Z M 3.953125 -4.71875 L 8.671875 -4.71875 L 6.3125 -11.296875 Z M 3.953125 -4.71875 "/></g></g></g></g><g fill="#545454" fill-opacity="1"><g transform="translate(12.970953, 19.671736)"><g><path d="M 1.40625 0 L 1.40625 -13.3125 L 3 -13.3125 L 3 0 Z M 1.40625 0 "/></g></g></g><g fill="#545454" fill-opacity="1"><g transform="translate(17.381132, 19.671736)"><g/></g></g><g fill="#545454" fill-opacity="1"><g transform="translate(22.418622, 19.671736)"><g><path d="M 1.40625 0 L 1.40625 -13.3125 L 9.640625 -13.3125 L 9.640625 -12 L 3 -12 L 3 -7.359375 L 9.078125 -7.359375 L 9.078125 -6.0625 L 3 -6.0625 L 3 -1.3125 L 9.640625 -1.3125 L 9.640625 0 Z M 1.40625 0 "/></g></g></g><g fill="#545454" fill-opacity="1"><g transform="translate(33.139923, 19.671736)"><g><path d="M 1.3125 0 L 1.3125 -9.4375 L 2.75 -9.4375 L 2.875 -8.0625 C 3.175781 -8.570312 3.578125 -8.960938 4.078125 -9.234375 C 4.585938 -9.515625 5.160156 -9.65625 5.796875 -9.65625 C 6.546875 -9.65625 7.1875 -9.503906 7.71875 -9.203125 C 8.257812 -8.898438 8.675781 -8.4375 8.96875 -7.8125 C 9.300781 -8.382812 9.753906 -8.832031 10.328125 -9.15625 C 10.910156 -9.488281 11.535156 -9.65625 12.203125 -9.65625 C 13.335938 -9.65625 14.238281 -9.316406 14.90625 -8.640625 C 15.582031 -7.960938 15.921875 -6.921875 15.921875 -5.515625 L 15.921875 0 L 14.34375 0 L 14.34375 -5.34375 C 14.34375 -6.320312 14.144531 -7.054688 13.75 -7.546875 C 13.351562 -8.046875 12.789062 -8.296875 12.0625 -8.296875 C 11.300781 -8.296875 10.664062 -8 10.15625 -7.40625 C 9.65625 -6.8125 9.40625 -5.972656 9.40625 -4.890625 L 9.40625 0 L 7.8125 0 L 7.8125 -5.34375 C 7.8125 -6.320312 7.613281 -7.054688 7.21875 -7.546875 C 6.832031 -8.046875 6.269531 -8.296875 5.53125 -8.296875 C 4.78125 -8.296875 4.15625 -8 3.65625 -7.40625 C 3.15625 -6.8125 2.90625 -5.972656 2.90625 -4.890625 L 2.90625 0 Z M 1.3125 0 "/></g></g></g><g fill="#545454" fill-opacity="1"><g transform="translate(50.153337, 19.671736)"><g><path d="M 1.3125 4.1875 L 1.3125 -9.4375 L 2.75 -9.4375 L 2.90625 -7.875 C 3.207031 -8.332031 3.640625 -8.742188 4.203125 -9.109375 C 4.773438 -9.472656 5.5 -9.65625 6.375 -9.65625 C 7.3125 -9.65625 8.128906 -9.4375 8.828125 -9 C 9.523438 -8.570312 10.066406 -7.984375 10.453125 -7.234375 C 10.835938 -6.492188 11.03125 -5.648438 11.03125 -4.703125 C 11.03125 -3.742188 10.835938 -2.894531 10.453125 -2.15625 C 10.066406 -1.414062 9.519531 -0.832031 8.8125 -0.40625 C 8.113281 0.0195312 7.289062 0.234375 6.34375 0.234375 C 5.570312 0.234375 4.882812 0.078125 4.28125 -0.234375 C 3.6875 -0.554688 3.226562 -1.003906 2.90625 -1.578125 L 2.90625 4.1875 Z M 6.1875 -1.15625 C 6.8125 -1.15625 7.363281 -1.300781 7.84375 -1.59375 C 8.332031 -1.894531 8.710938 -2.3125 8.984375 -2.84375 C 9.265625 -3.382812 9.40625 -4.007812 9.40625 -4.71875 C 9.40625 -5.425781 9.265625 -6.046875 8.984375 -6.578125 C 8.710938 -7.109375 8.332031 -7.519531 7.84375 -7.8125 C 7.363281 -8.113281 6.8125 -8.265625 6.1875 -8.265625 C 5.550781 -8.265625 4.988281 -8.113281 4.5 -7.8125 C 4.019531 -7.519531 3.640625 -7.109375 3.359375 -6.578125 C 3.085938 -6.046875 2.953125 -5.425781 2.953125 -4.71875 C 2.953125 -4.007812 3.085938 -3.382812 3.359375 -2.84375 C 3.640625 -2.3125 4.019531 -1.894531 4.5 -1.59375 C 4.988281 -1.300781 5.550781 -1.15625 6.1875 -1.15625 Z M 6.1875 -1.15625 "/></g></g></g><g fill="#545454" fill-opacity="1"><g transform="translate(62.091241, 19.671736)"><g><path d="M 1.3125 0 L 1.3125 -13.6875 L 2.90625 -13.6875 L 2.90625 0 Z M 1.3125 0 "/></g></g></g><g fill="#545454" fill-opacity="1"><g transform="translate(66.311326, 19.671736)"><g><path d="M 5.609375 0.234375 C 4.722656 0.234375 3.925781 0.03125 3.21875 -0.375 C 2.507812 -0.78125 1.945312 -1.351562 1.53125 -2.09375 C 1.113281 -2.84375 0.90625 -3.71875 0.90625 -4.71875 C 0.90625 -5.71875 1.113281 -6.585938 1.53125 -7.328125 C 1.957031 -8.066406 2.523438 -8.640625 3.234375 -9.046875 C 3.953125 -9.453125 4.753906 -9.65625 5.640625 -9.65625 C 6.535156 -9.65625 7.335938 -9.453125 8.046875 -9.046875 C 8.753906 -8.640625 9.3125 -8.066406 9.71875 -7.328125 C 10.132812 -6.585938 10.34375 -5.71875 10.34375 -4.71875 C 10.34375 -3.71875 10.132812 -2.84375 9.71875 -2.09375 C 9.300781 -1.351562 8.734375 -0.78125 8.015625 -0.375 C 7.296875 0.03125 6.492188 0.234375 5.609375 0.234375 Z M 5.609375 -1.140625 C 6.148438 -1.140625 6.65625 -1.269531 7.125 -1.53125 C 7.59375 -1.800781 7.972656 -2.203125 8.265625 -2.734375 C 8.554688 -3.265625 8.703125 -3.925781 8.703125 -4.71875 C 8.703125 -5.5 8.5625 -6.15625 8.28125 -6.6875 C 8 -7.21875 7.625 -7.617188 7.15625 -7.890625 C 6.6875 -8.160156 6.179688 -8.296875 5.640625 -8.296875 C 5.097656 -8.296875 4.59375 -8.160156 4.125 -7.890625 C 3.65625 -7.617188 3.273438 -7.21875 2.984375 -6.6875 C 2.691406 -6.15625 2.546875 -5.5 2.546875 -4.71875 C 2.546875 -3.925781 2.691406 -3.265625 2.984375 -2.734375 C 3.273438 -2.203125 3.648438 -1.800781 4.109375 -1.53125 C 4.578125 -1.269531 5.078125 -1.140625 5.609375 -1.140625 Z M 5.609375 -1.140625 "/></g></g></g><g fill="#545454" fill-opacity="1"><g transform="translate(76.804468, 19.671736)"><g><path d="M 2.34375 4.1875 L 4.671875 -0.90625 L 4.125 -0.90625 L 0.375 -9.4375 L 2.109375 -9.4375 L 5.234375 -2.09375 L 8.53125 -9.4375 L 10.1875 -9.4375 L 4.015625 4.1875 Z M 2.34375 4.1875 "/></g></g></g><g fill="#545454" fill-opacity="1"><g transform="translate(86.480193, 19.671736)"><g><path d="M 5.546875 0.234375 C 4.648438 0.234375 3.851562 0.0234375 3.15625 -0.390625 C 2.457031 -0.804688 1.90625 -1.378906 1.5 -2.109375 C 1.101562 -2.847656 0.90625 -3.71875 0.90625 -4.71875 C 0.90625 -5.707031 1.101562 -6.570312 1.5 -7.3125 C 1.894531 -8.050781 2.441406 -8.625 3.140625 -9.03125 C 3.847656 -9.445312 4.664062 -9.65625 5.59375 -9.65625 C 6.5 -9.65625 7.285156 -9.445312 7.953125 -9.03125 C 8.617188 -8.625 9.128906 -8.082031 9.484375 -7.40625 C 9.835938 -6.738281 10.015625 -6.019531 10.015625 -5.25 C 10.015625 -5.113281 10.007812 -4.972656 10 -4.828125 C 10 -4.691406 10 -4.535156 10 -4.359375 L 2.484375 -4.359375 C 2.523438 -3.628906 2.691406 -3.023438 2.984375 -2.546875 C 3.285156 -2.078125 3.660156 -1.722656 4.109375 -1.484375 C 4.566406 -1.242188 5.046875 -1.125 5.546875 -1.125 C 6.210938 -1.125 6.765625 -1.273438 7.203125 -1.578125 C 7.648438 -1.878906 7.972656 -2.289062 8.171875 -2.8125 L 9.75 -2.8125 C 9.5 -1.9375 9.015625 -1.207031 8.296875 -0.625 C 7.578125 -0.0507812 6.660156 0.234375 5.546875 0.234375 Z M 5.546875 -8.3125 C 4.785156 -8.3125 4.109375 -8.078125 3.515625 -7.609375 C 2.929688 -7.148438 2.597656 -6.476562 2.515625 -5.59375 L 8.4375 -5.59375 C 8.40625 -6.4375 8.113281 -7.097656 7.5625 -7.578125 C 7.019531 -8.066406 6.347656 -8.3125 5.546875 -8.3125 Z M 5.546875 -8.3125 "/></g></g></g><g fill="#545454" fill-opacity="1"><g transform="translate(97.296547, 19.671736)"><g><path d="M 5.546875 0.234375 C 4.648438 0.234375 3.851562 0.0234375 3.15625 -0.390625 C 2.457031 -0.804688 1.90625 -1.378906 1.5 -2.109375 C 1.101562 -2.847656 0.90625 -3.71875 0.90625 -4.71875 C 0.90625 -5.707031 1.101562 -6.570312 1.5 -7.3125 C 1.894531 -8.050781 2.441406 -8.625 3.140625 -9.03125 C 3.847656 -9.445312 4.664062 -9.65625 5.59375 -9.65625 C 6.5 -9.65625 7.285156 -9.445312 7.953125 -9.03125 C 8.617188 -8.625 9.128906 -8.082031 9.484375 -7.40625 C 9.835938 -6.738281 10.015625 -6.019531 10.015625 -5.25 C 10.015625 -5.113281 10.007812 -4.972656 10 -4.828125 C 10 -4.691406 10 -4.535156 10 -4.359375 L 2.484375 -4.359375 C 2.523438 -3.628906 2.691406 -3.023438 2.984375 -2.546875 C 3.285156 -2.078125 3.660156 -1.722656 4.109375 -1.484375 C 4.566406 -1.242188 5.046875 -1.125 5.546875 -1.125 C 6.210938 -1.125 6.765625 -1.273438 7.203125 -1.578125 C 7.648438 -1.878906 7.972656 -2.289062 8.171875 -2.8125 L 9.75 -2.8125 C 9.5 -1.9375 9.015625 -1.207031 8.296875 -0.625 C 7.578125 -0.0507812 6.660156 0.234375 5.546875 0.234375 Z M 5.546875 -8.3125 C 4.785156 -8.3125 4.109375 -8.078125 3.515625 -7.609375 C 2.929688 -7.148438 2.597656 -6.476562 2.515625 -5.59375 L 8.4375 -5.59375 C 8.40625 -6.4375 8.113281 -7.097656 7.5625 -7.578125 C 7.019531 -8.066406 6.347656 -8.3125 5.546875 -8.3125 Z M 5.546875 -8.3125 "/></g></g></g><g fill="#545454" fill-opacity="1"><g transform="translate(108.112901, 19.671736)"><g/></g></g><g fill="#545454" fill-opacity="1"><g transform="translate(113.150391, 19.671736)"><g><path d="M 1.40625 0 L 1.40625 -13.3125 L 3.265625 -13.3125 L 8.0625 -4.03125 L 12.8125 -13.3125 L 14.703125 -13.3125 L 14.703125 0 L 13.109375 0 L 13.109375 -10.453125 L 8.65625 -1.90625 L 7.453125 -1.90625 L 3 -10.4375 L 3 0 Z M 1.40625 0 "/></g></g></g><g fill="#545454" fill-opacity="1"><g transform="translate(129.25136, 19.671736)"><g><path d="M 4.453125 0.234375 C 3.660156 0.234375 3.003906 0.0976562 2.484375 -0.171875 C 1.972656 -0.441406 1.585938 -0.796875 1.328125 -1.234375 C 1.078125 -1.679688 0.953125 -2.164062 0.953125 -2.6875 C 0.953125 -3.644531 1.316406 -4.382812 2.046875 -4.90625 C 2.785156 -5.425781 3.789062 -5.6875 5.0625 -5.6875 L 7.609375 -5.6875 L 7.609375 -5.796875 C 7.609375 -6.617188 7.390625 -7.242188 6.953125 -7.671875 C 6.523438 -8.097656 5.953125 -8.3125 5.234375 -8.3125 C 4.609375 -8.3125 4.070312 -8.15625 3.625 -7.84375 C 3.175781 -7.53125 2.894531 -7.078125 2.78125 -6.484375 L 1.140625 -6.484375 C 1.203125 -7.171875 1.429688 -7.75 1.828125 -8.21875 C 2.234375 -8.6875 2.734375 -9.039062 3.328125 -9.28125 C 3.921875 -9.53125 4.554688 -9.65625 5.234375 -9.65625 C 6.546875 -9.65625 7.535156 -9.300781 8.203125 -8.59375 C 8.867188 -7.894531 9.203125 -6.960938 9.203125 -5.796875 L 9.203125 0 L 7.78125 0 L 7.6875 -1.6875 C 7.414062 -1.15625 7.023438 -0.703125 6.515625 -0.328125 C 6.003906 0.046875 5.316406 0.234375 4.453125 0.234375 Z M 4.703125 -1.125 C 5.304688 -1.125 5.828125 -1.28125 6.265625 -1.59375 C 6.703125 -1.914062 7.035156 -2.328125 7.265625 -2.828125 C 7.492188 -3.335938 7.609375 -3.875 7.609375 -4.4375 L 7.609375 -4.453125 L 5.1875 -4.453125 C 4.25 -4.453125 3.585938 -4.289062 3.203125 -3.96875 C 2.816406 -3.644531 2.625 -3.238281 2.625 -2.75 C 2.625 -2.257812 2.800781 -1.863281 3.15625 -1.5625 C 3.519531 -1.269531 4.035156 -1.125 4.703125 -1.125 Z M 4.703125 -1.125 "/></g></g></g><g fill="#545454" fill-opacity="1"><g transform="translate(139.535443, 19.671736)"><g><path d="M 1.3125 0 L 1.3125 -9.4375 L 2.75 -9.4375 L 2.859375 -7.734375 C 3.160156 -8.335938 3.59375 -8.804688 4.15625 -9.140625 C 4.726562 -9.484375 5.378906 -9.65625 6.109375 -9.65625 C 7.222656 -9.65625 8.113281 -9.316406 8.78125 -8.640625 C 9.445312 -7.960938 9.78125 -6.921875 9.78125 -5.515625 L 9.78125 0 L 8.171875 0 L 8.171875 -5.34375 C 8.171875 -7.3125 7.363281 -8.296875 5.75 -8.296875 C 4.9375 -8.296875 4.257812 -8 3.71875 -7.40625 C 3.175781 -6.8125 2.90625 -5.972656 2.90625 -4.890625 L 2.90625 0 Z M 1.3125 0 "/></g></g></g><g fill="#545454" fill-opacity="1"><g transform="translate(150.408817, 19.671736)"><g><path d="M 4.453125 0.234375 C 3.660156 0.234375 3.003906 0.0976562 2.484375 -0.171875 C 1.972656 -0.441406 1.585938 -0.796875 1.328125 -1.234375 C 1.078125 -1.679688 0.953125 -2.164062 0.953125 -2.6875 C 0.953125 -3.644531 1.316406 -4.382812 2.046875 -4.90625 C 2.785156 -5.425781 3.789062 -5.6875 5.0625 -5.6875 L 7.609375 -5.6875 L 7.609375 -5.796875 C 7.609375 -6.617188 7.390625 -7.242188 6.953125 -7.671875 C 6.523438 -8.097656 5.953125 -8.3125 5.234375 -8.3125 C 4.609375 -8.3125 4.070312 -8.15625 3.625 -7.84375 C 3.175781 -7.53125 2.894531 -7.078125 2.78125 -6.484375 L 1.140625 -6.484375 C 1.203125 -7.171875 1.429688 -7.75 1.828125 -8.21875 C 2.234375 -8.6875 2.734375 -9.039062 3.328125 -9.28125 C 3.921875 -9.53125 4.554688 -9.65625 5.234375 -9.65625 C 6.546875 -9.65625 7.535156 -9.300781 8.203125 -8.59375 C 8.867188 -7.894531 9.203125 -6.960938 9.203125 -5.796875 L 9.203125 0 L 7.78125 0 L 7.6875 -1.6875 C 7.414062 -1.15625 7.023438 -0.703125 6.515625 -0.328125 C 6.003906 0.046875 5.316406 0.234375 4.453125 0.234375 Z M 4.703125 -1.125 C 5.304688 -1.125 5.828125 -1.28125 6.265625 -1.59375 C 6.703125 -1.914062 7.035156 -2.328125 7.265625 -2.828125 C 7.492188 -3.335938 7.609375 -3.875 7.609375 -4.4375 L 7.609375 -4.453125 L 5.1875 -4.453125 C 4.25 -4.453125 3.585938 -4.289062 3.203125 -3.96875 C 2.816406 -3.644531 2.625 -3.238281 2.625 -2.75 C 2.625 -2.257812 2.800781 -1.863281 3.15625 -1.5625 C 3.519531 -1.269531 4.035156 -1.125 4.703125 -1.125 Z M 4.703125 -1.125 "/></g></g></g><g fill="#545454" fill-opacity="1"><g transform="translate(160.692901, 19.671736)"><g><path d="M 5.046875 -2.96875 C 4.503906 -2.96875 4.015625 -3.035156 3.578125 -3.171875 L 2.625 -2.28125 C 2.757812 -2.175781 2.929688 -2.085938 3.140625 -2.015625 C 3.347656 -1.953125 3.648438 -1.890625 4.046875 -1.828125 C 4.441406 -1.773438 4.992188 -1.71875 5.703125 -1.65625 C 6.972656 -1.5625 7.878906 -1.265625 8.421875 -0.765625 C 8.960938 -0.273438 9.234375 0.363281 9.234375 1.15625 C 9.234375 1.707031 9.082031 2.226562 8.78125 2.71875 C 8.488281 3.207031 8.035156 3.609375 7.421875 3.921875 C 6.804688 4.242188 6.019531 4.40625 5.0625 4.40625 C 4.207031 4.40625 3.453125 4.296875 2.796875 4.078125 C 2.140625 3.859375 1.625 3.519531 1.25 3.0625 C 0.882812 2.613281 0.703125 2.050781 0.703125 1.375 C 0.703125 1.019531 0.796875 0.632812 0.984375 0.21875 C 1.179688 -0.195312 1.535156 -0.585938 2.046875 -0.953125 C 1.773438 -1.066406 1.539062 -1.1875 1.34375 -1.3125 C 1.144531 -1.445312 0.960938 -1.597656 0.796875 -1.765625 L 0.796875 -2.203125 L 2.421875 -3.796875 C 1.671875 -4.429688 1.296875 -5.269531 1.296875 -6.3125 C 1.296875 -6.9375 1.441406 -7.5 1.734375 -8 C 2.023438 -8.507812 2.445312 -8.910156 3 -9.203125 C 3.5625 -9.503906 4.242188 -9.65625 5.046875 -9.65625 C 5.585938 -9.65625 6.078125 -9.582031 6.515625 -9.4375 L 10 -9.4375 L 10 -8.234375 L 8.234375 -8.15625 C 8.597656 -7.625 8.78125 -7.007812 8.78125 -6.3125 C 8.78125 -5.6875 8.628906 -5.117188 8.328125 -4.609375 C 8.035156 -4.109375 7.613281 -3.707031 7.0625 -3.40625 C 6.507812 -3.113281 5.835938 -2.96875 5.046875 -2.96875 Z M 5.046875 -4.28125 C 5.710938 -4.28125 6.242188 -4.453125 6.640625 -4.796875 C 7.046875 -5.148438 7.25 -5.65625 7.25 -6.3125 C 7.25 -6.957031 7.046875 -7.453125 6.640625 -7.796875 C 6.242188 -8.148438 5.710938 -8.328125 5.046875 -8.328125 C 4.359375 -8.328125 3.8125 -8.148438 3.40625 -7.796875 C 3.007812 -7.453125 2.8125 -6.957031 2.8125 -6.3125 C 2.8125 -5.65625 3.007812 -5.148438 3.40625 -4.796875 C 3.8125 -4.453125 4.359375 -4.28125 5.046875 -4.28125 Z M 2.265625 1.21875 C 2.265625 1.851562 2.53125 2.320312 3.0625 2.625 C 3.59375 2.9375 4.257812 3.09375 5.0625 3.09375 C 5.84375 3.09375 6.46875 2.921875 6.9375 2.578125 C 7.414062 2.242188 7.65625 1.789062 7.65625 1.21875 C 7.65625 0.8125 7.488281 0.457031 7.15625 0.15625 C 6.832031 -0.132812 6.226562 -0.304688 5.34375 -0.359375 C 4.644531 -0.410156 4.039062 -0.472656 3.53125 -0.546875 C 3.007812 -0.273438 2.664062 0.0195312 2.5 0.34375 C 2.34375 0.675781 2.265625 0.96875 2.265625 1.21875 Z M 2.265625 1.21875 "/></g></g></g><g fill="#545454" fill-opacity="1"><g transform="translate(170.805867, 19.671736)"><g><path d="M 5.546875 0.234375 C 4.648438 0.234375 3.851562 0.0234375 3.15625 -0.390625 C 2.457031 -0.804688 1.90625 -1.378906 1.5 -2.109375 C 1.101562 -2.847656 0.90625 -3.71875 0.90625 -4.71875 C 0.90625 -5.707031 1.101562 -6.570312 1.5 -7.3125 C 1.894531 -8.050781 2.441406 -8.625 3.140625 -9.03125 C 3.847656 -9.445312 4.664062 -9.65625 5.59375 -9.65625 C 6.5 -9.65625 7.285156 -9.445312 7.953125 -9.03125 C 8.617188 -8.625 9.128906 -8.082031 9.484375 -7.40625 C 9.835938 -6.738281 10.015625 -6.019531 10.015625 -5.25 C 10.015625 -5.113281 10.007812 -4.972656 10 -4.828125 C 10 -4.691406 10 -4.535156 10 -4.359375 L 2.484375 -4.359375 C 2.523438 -3.628906 2.691406 -3.023438 2.984375 -2.546875 C 3.285156 -2.078125 3.660156 -1.722656 4.109375 -1.484375 C 4.566406 -1.242188 5.046875 -1.125 5.546875 -1.125 C 6.210938 -1.125 6.765625 -1.273438 7.203125 -1.578125 C 7.648438 -1.878906 7.972656 -2.289062 8.171875 -2.8125 L 9.75 -2.8125 C 9.5 -1.9375 9.015625 -1.207031 8.296875 -0.625 C 7.578125 -0.0507812 6.660156 0.234375 5.546875 0.234375 Z M 5.546875 -8.3125 C 4.785156 -8.3125 4.109375 -8.078125 3.515625 -7.609375 C 2.929688 -7.148438 2.597656 -6.476562 2.515625 -5.59375 L 8.4375 -5.59375 C 8.40625 -6.4375 8.113281 -7.097656 7.5625 -7.578125 C 7.019531 -8.066406 6.347656 -8.3125 5.546875 -8.3125 Z M 5.546875 -8.3125 "/></g></g></g><g fill="#545454" fill-opacity="1"><g transform="translate(181.622221, 19.671736)"><g><path d="M 1.3125 0 L 1.3125 -9.4375 L 2.75 -9.4375 L 2.875 -8.0625 C 3.175781 -8.570312 3.578125 -8.960938 4.078125 -9.234375 C 4.585938 -9.515625 5.160156 -9.65625 5.796875 -9.65625 C 6.546875 -9.65625 7.1875 -9.503906 7.71875 -9.203125 C 8.257812 -8.898438 8.675781 -8.4375 8.96875 -7.8125 C 9.300781 -8.382812 9.753906 -8.832031 10.328125 -9.15625 C 10.910156 -9.488281 11.535156 -9.65625 12.203125 -9.65625 C 13.335938 -9.65625 14.238281 -9.316406 14.90625 -8.640625 C 15.582031 -7.960938 15.921875 -6.921875 15.921875 -5.515625 L 15.921875 0 L 14.34375 0 L 14.34375 -5.34375 C 14.34375 -6.320312 14.144531 -7.054688 13.75 -7.546875 C 13.351562 -8.046875 12.789062 -8.296875 12.0625 -8.296875 C 11.300781 -8.296875 10.664062 -8 10.15625 -7.40625 C 9.65625 -6.8125 9.40625 -5.972656 9.40625 -4.890625 L 9.40625 0 L 7.8125 0 L 7.8125 -5.34375 C 7.8125 -6.320312 7.613281 -7.054688 7.21875 -7.546875 C 6.832031 -8.046875 6.269531 -8.296875 5.53125 -8.296875 C 4.78125 -8.296875 4.15625 -8 3.65625 -7.40625 C 3.15625 -6.8125 2.90625 -5.972656 2.90625 -4.890625 L 2.90625 0 Z M 1.3125 0 "/></g></g></g><g fill="#545454" fill-opacity="1"><g transform="translate(198.635624, 19.671736)"><g><path d="M 5.546875 0.234375 C 4.648438 0.234375 3.851562 0.0234375 3.15625 -0.390625 C 2.457031 -0.804688 1.90625 -1.378906 1.5 -2.109375 C 1.101562 -2.847656 0.90625 -3.71875 0.90625 -4.71875 C 0.90625 -5.707031 1.101562 -6.570312 1.5 -7.3125 C 1.894531 -8.050781 2.441406 -8.625 3.140625 -9.03125 C 3.847656 -9.445312 4.664062 -9.65625 5.59375 -9.65625 C 6.5 -9.65625 7.285156 -9.445312 7.953125 -9.03125 C 8.617188 -8.625 9.128906 -8.082031 9.484375 -7.40625 C 9.835938 -6.738281 10.015625 -6.019531 10.015625 -5.25 C 10.015625 -5.113281 10.007812 -4.972656 10 -4.828125 C 10 -4.691406 10 -4.535156 10 -4.359375 L 2.484375 -4.359375 C 2.523438 -3.628906 2.691406 -3.023438 2.984375 -2.546875 C 3.285156 -2.078125 3.660156 -1.722656 4.109375 -1.484375 C 4.566406 -1.242188 5.046875 -1.125 5.546875 -1.125 C 6.210938 -1.125 6.765625 -1.273438 7.203125 -1.578125 C 7.648438 -1.878906 7.972656 -2.289062 8.171875 -2.8125 L 9.75 -2.8125 C 9.5 -1.9375 9.015625 -1.207031 8.296875 -0.625 C 7.578125 -0.0507812 6.660156 0.234375 5.546875 0.234375 Z M 5.546875 -8.3125 C 4.785156 -8.3125 4.109375 -8.078125 3.515625 -7.609375 C 2.929688 -7.148438 2.597656 -6.476562 2.515625 -5.59375 L 8.4375 -5.59375 C 8.40625 -6.4375 8.113281 -7.097656 7.5625 -7.578125 C 7.019531 -8.066406 6.347656 -8.3125 5.546875 -8.3125 Z M 5.546875 -8.3125 "/></g></g></g><g fill="#545454" fill-opacity="1"><g transform="translate(209.45199, 19.671736)"><g><path d="M 1.3125 0 L 1.3125 -9.4375 L 2.75 -9.4375 L 2.859375 -7.734375 C 3.160156 -8.335938 3.59375 -8.804688 4.15625 -9.140625 C 4.726562 -9.484375 5.378906 -9.65625 6.109375 -9.65625 C 7.222656 -9.65625 8.113281 -9.316406 8.78125 -8.640625 C 9.445312 -7.960938 9.78125 -6.921875 9.78125 -5.515625 L 9.78125 0 L 8.171875 0 L 8.171875 -5.34375 C 8.171875 -7.3125 7.363281 -8.296875 5.75 -8.296875 C 4.9375 -8.296875 4.257812 -8 3.71875 -7.40625 C 3.175781 -6.8125 2.90625 -5.972656 2.90625 -4.890625 L 2.90625 0 Z M 1.3125 0 "/></g></g></g><g fill="#545454" fill-opacity="1"><g transform="translate(220.325364, 19.671736)"><g><path d="M 5.046875 0 C 4.179688 0 3.5 -0.207031 3 -0.625 C 2.507812 -1.039062 2.265625 -1.796875 2.265625 -2.890625 L 2.265625 -8.078125 L 0.625 -8.078125 L 0.625 -9.4375 L 2.265625 -9.4375 L 2.46875 -11.6875 L 3.859375 -11.6875 L 3.859375 -9.4375 L 6.640625 -9.4375 L 6.640625 -8.078125 L 3.859375 -8.078125 L 3.859375 -2.890625 C 3.859375 -2.296875 3.976562 -1.894531 4.21875 -1.6875 C 4.457031 -1.476562 4.882812 -1.375 5.5 -1.375 L 6.484375 -1.375 L 6.484375 0 Z M 5.046875 0 "/></g></g></g></g></g></svg>